<?xml version="1.0" encoding="UTF-8" standalone="no"?>
<!DOCTYPE svg PUBLIC "-//W3C//DTD SVG 1.1//EN" "http://www.w3.org/Graphics/SVG/1.1/DTD/svg11.dtd">
<svg width="100%" height="100%" viewBox="0 0 2084 2084" version="1.1" xmlns="http://www.w3.org/2000/svg" xmlns:xlink="http://www.w3.org/1999/xlink" xml:space="preserve" xmlns:serif="http://www.serif.com/" style="fill-rule:evenodd;clip-rule:evenodd;stroke-linejoin:round;stroke-miterlimit:2;">
    <g id="Layer-1" serif:id="Layer 1" transform="matrix(4.16667,0,0,4.16667,0,0)">
        <g transform="matrix(1,0,0,1,384.43,-0.5697)">
            <path d="M0,500L-270,500C-333.513,500 -385,448.513 -385,385L-385,115C-385,51.487 -333.513,0 -270,0L0,0C63.513,0 115,51.487 115,115L115,385C115,448.513 63.513,500 0,500" style="fill:rgb(63,182,87);fill-rule:nonzero;"/>
        </g>
        <g transform="matrix(1,0,0,1,418.54,260.936)">
            <path d="M0,-19.061C0.78,-23.173 1.166,-26.632 1.343,-29.345C1.637,-33.824 1.303,-40.472 1.183,-42.554C-2.941,-114.296 -77.373,-171.454 -168.589,-171.454C-262.452,-171.454 -338.542,-110.931 -338.542,-36.273C-338.542,32.348 -274.259,89.027 -190.977,97.745C-185.885,98.278 -182.214,102.874 -182.779,107.962L-186.324,139.877C-187.13,147.121 -179.638,152.393 -173.073,149.224C-102.711,115.266 -60.637,80.332 -35.512,50.066C-30.94,44.559 -16.031,23.671 -12.992,18.186C-6.54,6.539 -2.092,-5.967 0,-19.061" style="fill:white;fill-rule:nonzero;"/>
        </g>
        <g transform="matrix(1,0,0,1,156.499,203.8)">
            <path d="M0,48.247L0,-8.693C0,-13.495 -3.892,-17.387 -8.694,-17.387C-13.495,-17.387 -17.387,-13.495 -17.387,-8.693L-17.387,56.941C-17.387,61.742 -13.495,65.634 -8.694,65.634L26.079,65.634C30.881,65.634 34.773,61.742 34.773,56.941C34.773,52.14 30.881,48.247 26.079,48.247L0,48.247Z" style="fill:rgb(59,181,73);fill-rule:nonzero;"/>
        </g>
        <g transform="matrix(1,0,0,1,210.123,186.413)">
            <path d="M0,83.021L-3.8,83.021C-7.552,83.021 -10.594,79.98 -10.594,76.228L-10.594,6.793C-10.594,3.041 -7.552,0 -3.8,0L0,0C3.752,0 6.794,3.041 6.794,6.793L6.794,76.228C6.794,79.98 3.752,83.021 0,83.021" style="fill:rgb(59,181,73);fill-rule:nonzero;"/>
        </g>
        <g transform="matrix(1,0,0,1,280.377,260.687)">
            <path d="M0,-65.581L0,-25.484C0,-25.484 -34.718,-70.769 -35.248,-71.364C-36.907,-73.226 -39.352,-74.371 -42.065,-74.268C-46.794,-74.089 -50.42,-69.956 -50.42,-65.224L-50.42,0.052C-50.42,4.854 -46.528,8.746 -41.727,8.746C-36.925,8.746 -33.033,4.854 -33.033,0.052L-33.033,-39.8C-33.033,-39.8 2.213,5.879 2.731,6.37C4.268,7.825 6.334,8.726 8.613,8.746C13.441,8.79 17.387,4.52 17.387,-0.308L17.387,-65.581C17.387,-70.382 13.495,-74.275 8.694,-74.275C3.892,-74.274 0,-70.382 0,-65.581" style="fill:rgb(59,181,73);fill-rule:nonzero;"/>
        </g>
        <g transform="matrix(1,0,0,1,362.963,260.74)">
            <path d="M0,-65.634C0,-70.435 -3.892,-74.328 -8.694,-74.328L-43.467,-74.328C-48.268,-74.328 -52.161,-70.435 -52.161,-65.634L-52.161,0C-52.161,4.802 -48.268,8.694 -43.467,8.694L-8.694,8.694C-3.892,8.694 0,4.802 0,0C0,-4.8 -3.892,-8.694 -8.694,-8.694L-34.774,-8.694L-34.774,-24.124L-8.694,-24.124C-3.892,-24.124 0,-28.017 0,-32.817C0,-37.619 -3.892,-41.511 -8.694,-41.511L-34.774,-41.511L-34.774,-56.942L-8.694,-56.942C-3.892,-56.94 0,-60.833 0,-65.634" style="fill:rgb(59,181,73);fill-rule:nonzero;"/>
        </g>
    </g>
</svg>
